<svg id="Camada_1" data-name="Camada 1" xmlns="http://www.w3.org/2000/svg" viewBox="0 0 55.37 21.7"><defs><style>.cls-1{isolation:isolate;}.cls-2{fill:#fff;}.cls-3{fill:#b2b3b5;}</style></defs><title>fbaup</title><rect width="11.3" height="9.72"/><g class="cls-1"><g class="cls-1"><path class="cls-2" d="M2.72,2.4H5.57V2.55h-1V7.48A1.5,1.5,0,0,0,6.19,9,1.88,1.88,0,0,0,8.33,7V3.19c0-.51-0.16-0.64-0.57-0.64H7.23V2.4H9.42V2.55H9c-0.41,0-.51.17-0.51,0.65V7.11A2,2,0,0,1,6.18,9.19c-1.55,0-2.56-.37-2.56-1.87V2.55H2.72V2.4Z" transform="translate(-1.34 -0.95)"/></g><g class="cls-1"><path class="cls-2" d="M10.65,8.67a0.49,0.49,0,0,1-.48.48,0.48,0.48,0,1,1,0-1A0.49,0.49,0,0,1,10.65,8.67Z" transform="translate(-1.34 -0.95)"/></g></g><g class="cls-1"><g class="cls-1"><path d="M14.4,2.55H13.47V2.4h2.69c1.4,0,2.49.48,2.49,1.84s-1.25,1.84-2.39,1.84a2.33,2.33,0,0,1-.89-0.16v3h1V9H13.47V8.89H14.4V2.55Zm1,3.18a1.39,1.39,0,0,0,.73.2,1.46,1.46,0,0,0,1.54-1.6,1.51,1.51,0,0,0-1.69-1.77H15.36V5.73Z" transform="translate(-1.34 -0.95)"/><path d="M22.46,2.25a3.28,3.28,0,0,1,3,3.47,3.28,3.28,0,0,1-3,3.47,3.28,3.28,0,0,1-3-3.47A3.28,3.28,0,0,1,22.46,2.25Zm0,6.78c1.68,0,1.9-2.08,1.9-3.32S24.14,2.4,22.46,2.4s-1.9,2.08-1.9,3.32S20.79,9,22.46,9Z" transform="translate(-1.34 -0.95)"/></g><g class="cls-1"><path d="M27,2.55H26.1V2.4H29c1.08,0,2.26.25,2.26,1.67,0,1.15-1.33,1.45-2,1.54v0C30.32,5.72,30.9,6,31,7.2l0.13,1.15c0.07,0.56.33,0.59,0.49,0.59A1,1,0,0,0,32,8.85L32.1,9a2.23,2.23,0,0,1-.77.12c-1.15,0-1.22-.61-1.35-1.7l-0.07-.57a1.09,1.09,0,0,0-1.3-1.13H28V8.89h1V9H26.1V8.89H27V2.55Zm1,3h0.47c1.11,0,1.76-.39,1.76-1.48a1.36,1.36,0,0,0-1.59-1.52H28v3Z" transform="translate(-1.34 -0.95)"/></g><g class="cls-1"><path d="M34.64,2.55h-0.2c-1.68,0-2.05.25-2.05,1.8H32.24v-2H38v2H37.86c0-1.55-.38-1.8-2-1.8H35.6V8.89h1V9h-2.9V8.89h1V2.55Z" transform="translate(-1.34 -0.95)"/><path d="M41.67,2.25a3.28,3.28,0,0,1,3,3.47,3.28,3.28,0,0,1-3,3.47,3.28,3.28,0,0,1-3-3.47A3.28,3.28,0,0,1,41.67,2.25Zm0,6.78c1.68,0,1.9-2.08,1.9-3.32S43.35,2.4,41.67,2.4s-1.9,2.08-1.9,3.32S40,9,41.67,9Z" transform="translate(-1.34 -0.95)"/></g></g><g class="cls-1"><path d="M15,13.47V14h0.72v0.33H15v0.85H14.6v-2h1.26v0.33H15Z" transform="translate(-1.34 -0.95)"/></g><g class="cls-1"><path d="M17.36,15.18l-0.16-.5H16.51l-0.17.5H15.94l0.74-2H17l0.74,2H17.36Zm-0.5-1.57-0.23.74h0.47Z" transform="translate(-1.34 -0.95)"/></g><g class="cls-1"><path d="M19.48,13.61A0.78,0.78,0,0,0,19,13.47a0.64,0.64,0,0,0-.67.66,0.69,0.69,0,0,0,.73.73,1.13,1.13,0,0,0,.45-0.1l0.07,0.33a1.27,1.27,0,0,1-.27.1,1.54,1.54,0,0,1-.33,0A1,1,0,0,1,18.25,15a1.1,1.1,0,0,1-.34-0.81,1.06,1.06,0,0,1,.31-0.76A1,1,0,0,1,19,13.1a1,1,0,0,1,.64.19Z" transform="translate(-1.34 -0.95)"/></g><g class="cls-1"><path d="M21.53,15.07a1.19,1.19,0,0,1-1.15,0,0.7,0.7,0,0,1-.28-0.69V13.14h0.39V14.4a0.41,0.41,0,0,0,.48.45,0.41,0.41,0,0,0,.45-0.45V13.14h0.39v1.24A0.7,0.7,0,0,1,21.53,15.07Z" transform="translate(-1.34 -0.95)"/><path d="M22.38,15.18v-2h0.39v1.71H23.6v0.33H22.38Z" transform="translate(-1.34 -0.95)"/><path d="M25.65,14.88a1.07,1.07,0,0,1-.82.3H24.07v-2h0.76a1,1,0,0,1,.83.3,1,1,0,0,1,.27.71A1.07,1.07,0,0,1,25.65,14.88ZM25.27,13.6a0.8,0.8,0,0,0-.49-0.12H24.48v1.35h0.31a0.63,0.63,0,0,0,.72-0.68A0.69,0.69,0,0,0,25.27,13.6Z" transform="translate(-1.34 -0.95)"/><path d="M27.55,15.18l-0.16-.5H26.71l-0.17.5H26.13l0.74-2h0.35l0.74,2H27.55ZM27,13.61l-0.23.74h0.47Z" transform="translate(-1.34 -0.95)"/></g><g class="cls-1"><path d="M29.92,14.88a1.07,1.07,0,0,1-.82.3H28.34v-2H29.1a1,1,0,0,1,.83.3,1,1,0,0,1,.27.71A1.07,1.07,0,0,1,29.92,14.88ZM29.55,13.6a0.8,0.8,0,0,0-.49-0.12H28.75v1.35h0.31a0.63,0.63,0,0,0,.72-0.68A0.69,0.69,0,0,0,29.55,13.6Z" transform="translate(-1.34 -0.95)"/></g><g class="cls-1"><path d="M30.74,15.18v-2H32v0.33H31.13V14h0.7V14.3h-0.7v0.54H32v0.33H30.74Z" transform="translate(-1.34 -0.95)"/></g><g class="cls-1"><path d="M34.79,14.88a1.07,1.07,0,0,1-.82.3H33.22v-2H34a1,1,0,0,1,.83.3,1,1,0,0,1,.27.71A1.07,1.07,0,0,1,34.79,14.88ZM34.42,13.6a0.8,0.8,0,0,0-.49-0.12H33.62v1.35h0.31a0.63,0.63,0,0,0,.72-0.68A0.69,0.69,0,0,0,34.42,13.6Z" transform="translate(-1.34 -0.95)"/></g><g class="cls-1"><path d="M35.61,15.18v-2h1.24v0.33H36V14h0.7V14.3H36v0.54h0.89v0.33H35.61Z" transform="translate(-1.34 -0.95)"/></g><g class="cls-1"><path d="M39,15.18H38.15v-2h0.74a0.68,0.68,0,0,1,.51.14,0.49,0.49,0,0,1,0,.68,0.41,0.41,0,0,1-.33.15,0.48,0.48,0,0,1,.5.52A0.53,0.53,0,0,1,39,15.18Zm-0.17-1.73H38.56V14h0.23a0.27,0.27,0,0,0,.34-0.27A0.27,0.27,0,0,0,38.81,13.45Zm0,0.85H38.56v0.56h0.25a0.46,0.46,0,0,0,.23,0,0.25,0.25,0,0,0,.14-0.24A0.3,0.3,0,0,0,38.81,14.3Z" transform="translate(-1.34 -0.95)"/></g><g class="cls-1"><path d="M40.11,15.18v-2h1.24v0.33H40.5V14h0.7V14.3H40.5v0.54h0.89v0.33H40.11Z" transform="translate(-1.34 -0.95)"/></g><g class="cls-1"><path d="M41.84,15.18v-2h0.39v1.71h0.83v0.33H41.84Z" transform="translate(-1.34 -0.95)"/><path d="M44.51,15.18l-0.16-.5H43.67l-0.17.5H43.09l0.74-2h0.35l0.74,2H44.51ZM44,13.61l-0.23.74h0.47Z" transform="translate(-1.34 -0.95)"/></g><g class="cls-1"><path d="M46.57,13.63A1.39,1.39,0,0,0,46,13.48a0.25,0.25,0,0,0-.3.19,0.26,0.26,0,0,0,.19.22,3,3,0,0,1,.61.39,0.52,0.52,0,0,1,.14.36,0.6,0.6,0,0,1-.72.58H45.79a1.27,1.27,0,0,1-.43-0.14L45.23,15l0.16-.36,0.29,0.14a0.92,0.92,0,0,0,.29.06,0.25,0.25,0,0,0,.3-0.2,0.25,0.25,0,0,0-.18-0.22l-0.31-.18a0.66,0.66,0,0,1-.47-0.56,0.55,0.55,0,0,1,.08-0.28,0.58,0.58,0,0,1,.15-0.15,0.79,0.79,0,0,1,.51-0.14,1.31,1.31,0,0,1,.38.05,1.79,1.79,0,0,1,.29.12Z" transform="translate(-1.34 -0.95)"/></g><g class="cls-1"><path d="M49.19,15.18L49,14.67H48.35l-0.17.5H47.78l0.74-2h0.35l0.74,2H49.19Zm-0.5-1.57-0.23.74h0.47Z" transform="translate(-1.34 -0.95)"/><path d="M51,15.18l-0.47-.81H50.33v0.81H49.94v-2h0.68a0.71,0.71,0,0,1,.55.15,0.57,0.57,0,0,1,.17.44,0.62,0.62,0,0,1-.11.38,0.5,0.5,0,0,1-.32.19l0.51,0.87H51Zm-0.41-1.71H50.33V14h0.25c0.25,0,.35-0.09.35-0.29S50.84,13.47,50.59,13.47Z" transform="translate(-1.34 -0.95)"/><path d="M52.68,13.47v1.71H52.29V13.47H51.68V13.14h1.61v0.33H52.68Z" transform="translate(-1.34 -0.95)"/></g><g class="cls-1"><path d="M53.65,15.18v-2h1.24v0.33H54V14h0.7V14.3H54v0.54h0.89v0.33H53.65Z" transform="translate(-1.34 -0.95)"/></g><g class="cls-1"><path d="M56.56,13.63A1.39,1.39,0,0,0,56,13.48a0.25,0.25,0,0,0-.3.19,0.26,0.26,0,0,0,.19.22,3,3,0,0,1,.61.39,0.52,0.52,0,0,1,.14.36,0.6,0.6,0,0,1-.72.58H55.78a1.27,1.27,0,0,1-.43-0.14L55.22,15l0.16-.36,0.29,0.14a0.92,0.92,0,0,0,.29.06,0.25,0.25,0,0,0,.3-0.2,0.25,0.25,0,0,0-.18-0.22l-0.31-.18a0.66,0.66,0,0,1-.47-0.56,0.55,0.55,0,0,1,.08-0.28,0.58,0.58,0,0,1,.15-0.15A0.79,0.79,0,0,1,56,13.11a1.31,1.31,0,0,1,.38.05,1.79,1.79,0,0,1,.29.12Z" transform="translate(-1.34 -0.95)"/></g><g class="cls-1"><path d="M15.84,18.75a0.93,0.93,0,0,1-1.12,0,0.65,0.65,0,0,1-.24-0.57V16.84h0.25V18.1a0.51,0.51,0,0,0,.12.43,0.6,0.6,0,0,0,.85,0,0.51,0.51,0,0,0,.12-0.43V16.84h0.25v1.34A0.64,0.64,0,0,1,15.84,18.75Z" transform="translate(-1.34 -0.95)"/><path d="M18.26,18.9l-1-1.59,0-.07,0,0,0-.08v1.76H16.88v-2h0.33l1,1.55,0,0,0,0.09V16.84h0.25V18.9H18.26Z" transform="translate(-1.34 -0.95)"/></g><g class="cls-1"><path d="M19.28,18.88v-2h0.25v2H19.28Z" transform="translate(-1.34 -0.95)"/></g><g class="cls-1"><path d="M21,18.93H20.82L20,16.84h0.27l0.6,1.59a0.39,0.39,0,0,1,0,.1,0.27,0.27,0,0,1,0-.1l0.58-1.59h0.25Z" transform="translate(-1.34 -0.95)"/></g><g class="cls-1"><path d="M22.25,18.88v-2H23.4v0.21H22.51v0.68h0.74v0.21H22.51v0.72h0.92v0.21H22.25Z" transform="translate(-1.34 -0.95)"/></g><g class="cls-1"><path d="M25.06,18.88L24.5,18H24.23v0.87H24v-2h0.62a0.59,0.59,0,0,1,.48.15,0.56,0.56,0,0,1,.16.4,0.58,0.58,0,0,1-.18.42,0.54,0.54,0,0,1-.31.15l0.6,0.91H25.06Zm-0.21-1.76a0.41,0.41,0,0,0-.3-0.06H24.23v0.74h0.33a0.36,0.36,0,0,0,.41-0.4A0.33,0.33,0,0,0,24.85,17.11Z" transform="translate(-1.34 -0.95)"/><path d="M26.93,17.19a1,1,0,0,0-.21-0.1,1.09,1.09,0,0,0-.28,0,0.33,0.33,0,0,0-.39.29c0,0.15.09,0.23,0.5,0.45a1.75,1.75,0,0,1,.32.21,0.49,0.49,0,0,1,.16.37,0.58,0.58,0,0,1-.67.57A1,1,0,0,1,26,18.85a1.3,1.3,0,0,1-.26-0.15l0.13-.2a1.09,1.09,0,0,0,.23.13,0.83,0.83,0,0,0,.29.05,0.32,0.32,0,0,0,.39-0.31,0.29,0.29,0,0,0,0-.15,0.45,0.45,0,0,0-.17-0.17l-0.34-.18a0.63,0.63,0,0,1-.43-0.53,0.58,0.58,0,0,1,.67-0.54,1.14,1.14,0,0,1,.34,0A1.12,1.12,0,0,1,27,17Z" transform="translate(-1.34 -0.95)"/><path d="M27.67,18.88v-2h0.25v2H27.67Z" transform="translate(-1.34 -0.95)"/></g><g class="cls-1"><path d="M30.14,18.58a0.88,0.88,0,0,1-.75.3H28.72v-2h0.68a1,1,0,0,1,1,1A1.12,1.12,0,0,1,30.14,18.58Zm-0.79-1.53H29v1.61h0.39a0.68,0.68,0,0,0,.55-0.18,1,1,0,0,0,.25-0.63A0.78,0.78,0,0,0,29.35,17.05Z" transform="translate(-1.34 -0.95)"/></g><g class="cls-1"><path d="M32.18,18.88L32,18.28H31.14l-0.21.6H30.66l0.76-2.09h0.27l0.76,2.09H32.18Zm-0.62-1.76L31.22,18h0.66Z" transform="translate(-1.34 -0.95)"/></g><g class="cls-1"><path d="M34.36,18.58a0.88,0.88,0,0,1-.75.3H32.93v-2h0.68a1,1,0,0,1,1,1A1.12,1.12,0,0,1,34.36,18.58Zm-0.79-1.53H33.18v1.61h0.39a0.68,0.68,0,0,0,.55-0.18,1,1,0,0,0,.25-0.63A0.78,0.78,0,0,0,33.57,17.05Z" transform="translate(-1.34 -0.95)"/></g><g class="cls-1"><path d="M35.31,18.88v-2h1.14v0.21H35.56v0.68H36.3v0.21H35.56v0.72h0.92v0.21H35.31Z" transform="translate(-1.34 -0.95)"/></g><g class="cls-1"><path d="M39.29,18.58a0.88,0.88,0,0,1-.75.3H37.86v-2h0.68a1,1,0,0,1,1,1A1.12,1.12,0,0,1,39.29,18.58ZM38.5,17.05H38.12v1.61H38.5a0.68,0.68,0,0,0,.55-0.18,1,1,0,0,0,.25-0.63A0.78,0.78,0,0,0,38.5,17.05Z" transform="translate(-1.34 -0.95)"/></g><g class="cls-1"><path d="M41,18.92a1.06,1.06,0,1,1,1-1.06A1,1,0,0,1,41,18.92ZM41,17a0.84,0.84,0,1,0,.74.83A0.8,0.8,0,0,0,41,17Z" transform="translate(-1.34 -0.95)"/></g><g class="cls-1"><path d="M44.05,18.13l-0.31,0v0.77H43.49v-2h0.64a0.62,0.62,0,0,1,.5.16,0.6,0.6,0,0,1,.16.44A0.66,0.66,0,0,1,44.05,18.13Zm0.35-1a0.41,0.41,0,0,0-.31-0.09H43.74v0.84l0.27,0a0.7,0.7,0,0,0,.27,0,0.43,0.43,0,0,0,.24-0.41A0.44,0.44,0,0,0,44.4,17.14Z" transform="translate(-1.34 -0.95)"/></g><g class="cls-1"><path d="M46.23,18.92a1.06,1.06,0,1,1,1-1.06A1,1,0,0,1,46.23,18.92Zm0-1.89a0.84,0.84,0,1,0,.74.83A0.8,0.8,0,0,0,46.23,17Z" transform="translate(-1.34 -0.95)"/><path d="M48.83,18.88L48.26,18H48v0.87H47.74v-2h0.62a0.59,0.59,0,0,1,.48.15,0.56,0.56,0,0,1,.16.4,0.58,0.58,0,0,1-.18.42,0.54,0.54,0,0,1-.31.15l0.6,0.91H48.83Zm-0.21-1.76a0.41,0.41,0,0,0-.3-0.06H48v0.74h0.33a0.36,0.36,0,0,0,.41-0.4A0.33,0.33,0,0,0,48.62,17.11Z" transform="translate(-1.34 -0.95)"/><path d="M50.35,17.05v1.82H50.09V17.05H49.41V16.84H51v0.21H50.35Z" transform="translate(-1.34 -0.95)"/></g><g class="cls-1"><path d="M52.35,18.92a1.06,1.06,0,1,1,1-1.06A1,1,0,0,1,52.35,18.92Zm0-1.89a0.84,0.84,0,1,0,.74.83A0.8,0.8,0,0,0,52.35,17Z" transform="translate(-1.34 -0.95)"/></g><path class="cls-3" d="M7.22,13a1.86,1.86,0,0,1,.26,0,0.17,0.17,0,0,1,.18.18,5.42,5.42,0,0,1-.52,2.53L7.05,16,7,16a15.94,15.94,0,0,1-.34-2.79,0.48,0.48,0,0,1,0-.19H7.22Z" transform="translate(-1.34 -0.95)"/><path class="cls-3" d="M5.9,13.17c0.13,0.35.26,0.68,0.36,1a1.48,1.48,0,0,1,.11.54,5.61,5.61,0,0,0,.27,1.83,7.61,7.61,0,0,1,.2,1.21,5.18,5.18,0,0,1-.09.76,7,7,0,0,1,0,.9c0,0.21-.12.43-0.15,0.62-0.12.81-.22,1.63-0.33,2.45,0,0.11,0,.17-0.16.15a5.06,5.06,0,0,1-2.54-1.18,5,5,0,0,1-1.42-2.57A4.89,4.89,0,0,1,4,14,5.47,5.47,0,0,1,5.9,13.17Z" transform="translate(-1.34 -0.95)"/><path class="cls-3" d="M6.77,22.64V20.55a0.35,0.35,0,0,1,0-.14A4.43,4.43,0,0,1,8,18.73a1.22,1.22,0,0,0,.43-0.58,5.6,5.6,0,0,1,.3-0.69,2.37,2.37,0,0,1,.69-0.86c0.12-.09.24-0.2,0.36-0.3a0.9,0.9,0,0,0,.31-0.55,0.51,0.51,0,0,1,.13-0.27,5.15,5.15,0,0,1,.5-0.43,4.89,4.89,0,0,1,.39,5.14A4.8,4.8,0,0,1,6.77,22.64Z" transform="translate(-1.34 -0.95)"/><path class="cls-3" d="M8.21,13.26h0A7.71,7.71,0,0,1,9.83,14a1.32,1.32,0,0,1,.19.17,0.47,0.47,0,0,1,0,.66h0a1,1,0,0,0-.28.49,0.19,0.19,0,0,1-.05.08,4.69,4.69,0,0,0-.4.51,1.87,1.87,0,0,1-.48.61,0.58,0.58,0,0,0-.24.45,0.66,0.66,0,0,1-.28.51,1.37,1.37,0,0,0-.54.75,1.37,1.37,0,0,1-.64.69,6.3,6.3,0,0,0,.19-1.71,14.34,14.34,0,0,1,.54-2.06,6.59,6.59,0,0,0,.35-1.87A0.18,0.18,0,0,1,8.21,13.26Z" transform="translate(-1.34 -0.95)"/></svg>