<svg id="Camada_1" data-name="Camada 1" xmlns="http://www.w3.org/2000/svg" viewBox="0 0 130.83 64.2"><defs><style>.cls-1,.cls-3{font-size:22px;font-family:Bauer Bodoni;}.cls-1{fill:#fff;}.cls-2{letter-spacing:-1px;}.cls-4{font-size:7.2px;}.cls-4,.cls-8{font-family:ScalaSans;}.cls-5,.cls-8{font-weight:700;}.cls-6{font-family:Scala Sans;}.cls-7{white-space:pre;}.cls-9{fill:#b2b3b5;}</style></defs><title>fbaup</title><rect width="26.39" height="22.69"/><text class="cls-1" transform="translate(2.99 18.89)"><tspan class="cls-2">U</tspan><tspan x="14.56" y="0">.</tspan></text><text class="cls-3" transform="translate(27.93 18.89)">PO<tspan x="29.33" y="0">R</tspan><tspan x="43.6" y="0">TO</tspan></text><text class="cls-4" transform="translate(30.31 33.23)"><tspan class="cls-5">F<tspan x="3.76" y="0">A</tspan><tspan x="8.19" y="0">C</tspan><tspan x="12.97" y="0">ULDA</tspan><tspan x="32.13" y="0">D</tspan><tspan x="37.68" y="0">E</tspan><tspan x="41.56" y="0"> </tspan><tspan x="43.51" y="0">D</tspan><tspan x="49.06" y="0">E</tspan><tspan x="53.23" y="0"> </tspan><tspan x="55.03" y="0">B</tspan><tspan x="59.57" y="0">E</tspan><tspan x="63.6" y="0">LA</tspan><tspan x="72.02" y="0">S</tspan><tspan x="75.86" y="0"> </tspan><tspan x="78.1" y="0">ART</tspan><tspan x="91.33" y="0">E</tspan><tspan x="95.35" y="0">S</tspan></tspan><tspan class="cls-6"><tspan x="-0.29" y="8.64">UN</tspan><tspan x="11.08" y="8.64">I</tspan><tspan x="13.24" y="8.64">V</tspan><tspan x="17.73" y="8.64">E</tspan><tspan x="21.75" y="8.64">RSI</tspan><tspan x="32.82" y="8.64">D</tspan><tspan x="38.09" y="8.64">A</tspan><tspan x="42.66" y="8.64">D</tspan><tspan x="48.21" y="8.64">E</tspan><tspan class="cls-7" x="52.38" y="8.64"> D</tspan><tspan x="59.59" y="8.64">O</tspan><tspan x="65.51" y="8.64"> </tspan><tspan x="67.31" y="8.64">P</tspan><tspan x="71.75" y="8.64">ORT</tspan><tspan x="86.19" y="8.64">O</tspan><tspan class="cls-8" x="91.68" y="8.64"> </tspan></tspan></text><path class="cls-9" d="M16.64,30.81c0.2,0,.41.08,0.61,0.11a0.4,0.4,0,0,1,.43.41,12.66,12.66,0,0,1-1.22,5.91,2.62,2.62,0,0,1-.22.35,1.77,1.77,0,0,1-.15.17C16,35.53,15,33.47,15.3,31.25c0-.15,0-0.29.06-0.44h1.27Z" transform="translate(-2.91 -2.55)"/><path class="cls-9" d="M13.55,31.09c0.3,0.82.6,1.59,0.85,2.37a3.45,3.45,0,0,1,.26,1.27A13.11,13.11,0,0,0,15.3,39a17.77,17.77,0,0,1,.47,2.83,12.1,12.1,0,0,1-.2,1.78c0,0.69,0,1.4-.09,2.09-0.06.49-.29,1-0.36,1.44-0.27,1.9-.51,3.81-0.76,5.71,0,0.25-.08.4-0.38,0.34a11.82,11.82,0,0,1-5.93-2.76,11.55,11.55,0,0,1-3.31-6A11.41,11.41,0,0,1,9.1,32.92,12.78,12.78,0,0,1,13.55,31.09Z" transform="translate(-2.91 -2.55)"/><path class="cls-9" d="M15.59,53.21q0-1.2,0-2.42c0-.82,0-1.64,0-2.46A0.82,0.82,0,0,1,15.68,48a10.34,10.34,0,0,1,2.79-3.93,2.86,2.86,0,0,0,1-1.36,13.08,13.08,0,0,1,.7-1.61,5.54,5.54,0,0,1,1.61-2c0.29-.22.56-0.46,0.83-0.7a2.09,2.09,0,0,0,.72-1.28,1.18,1.18,0,0,1,.3-0.62c0.36-.37.77-0.69,1.16-1,2.42,2.79,3,8.19.92,12A11.2,11.2,0,0,1,15.59,53.21Z" transform="translate(-2.91 -2.55)"/><path class="cls-9" d="M18.94,31.3a0.28,0.28,0,0,1,.11,0,18,18,0,0,1,3.67,1.82,3.09,3.09,0,0,1,.45.39,1.09,1.09,0,0,1,0,1.55,2.29,2.29,0,0,0-.65,1.15,0.44,0.44,0,0,1-.12.18,10.94,10.94,0,0,0-.94,1.18A4.37,4.37,0,0,1,20.34,39a1.36,1.36,0,0,0-.55,1.06,1.55,1.55,0,0,1-.66,1.2A3.21,3.21,0,0,0,17.88,43a3.19,3.19,0,0,1-1.5,1.61c0.57-1.3.25-2.69,0.45-4a33.48,33.48,0,0,1,1.27-4.8,15.38,15.38,0,0,0,.81-4.36A0.42,0.42,0,0,1,18.94,31.3Z" transform="translate(-2.91 -2.55)"/></svg>