<svg id="Camada_1" data-name="Camada 1" xmlns="http://www.w3.org/2000/svg" viewBox="0 0 22.5 22.42"><defs><style>.cls-1{fill:#b2b3b5;}</style></defs><title>logo</title><path class="cls-1" d="M16.64,30.81c0.2,0,.41.08,0.61,0.11a0.4,0.4,0,0,1,.43.41,12.66,12.66,0,0,1-1.22,5.91,2.62,2.62,0,0,1-.22.35,1.77,1.77,0,0,1-.15.17C16,35.53,15,33.47,15.3,31.25c0-.15,0-0.29.06-0.44h1.27Z" transform="translate(-4.48 -30.81)"/><path class="cls-1" d="M13.55,31.09c0.3,0.82.6,1.59,0.85,2.37a3.45,3.45,0,0,1,.26,1.27A13.11,13.11,0,0,0,15.3,39a17.77,17.77,0,0,1,.47,2.83,12.1,12.1,0,0,1-.2,1.78c0,0.69,0,1.4-.09,2.09-0.06.49-.29,1-0.36,1.44-0.27,1.9-.51,3.81-0.76,5.71,0,0.25-.08.4-0.38,0.34a11.82,11.82,0,0,1-5.93-2.76,11.55,11.55,0,0,1-3.31-6A11.41,11.41,0,0,1,9.1,32.92,12.78,12.78,0,0,1,13.55,31.09Z" transform="translate(-4.48 -30.81)"/><path class="cls-1" d="M15.59,53.21q0-1.2,0-2.42c0-.82,0-1.64,0-2.46A0.82,0.82,0,0,1,15.68,48a10.34,10.34,0,0,1,2.79-3.93,2.86,2.86,0,0,0,1-1.36,13.08,13.08,0,0,1,.7-1.61,5.54,5.54,0,0,1,1.61-2c0.29-.22.56-0.46,0.83-0.7a2.09,2.09,0,0,0,.72-1.28,1.18,1.18,0,0,1,.3-0.62c0.36-.37.77-0.69,1.16-1,2.42,2.79,3,8.19.92,12A11.2,11.2,0,0,1,15.59,53.21Z" transform="translate(-4.48 -30.81)"/><path class="cls-1" d="M18.94,31.3a0.28,0.28,0,0,1,.11,0,18,18,0,0,1,3.67,1.82,3.09,3.09,0,0,1,.45.39,1.09,1.09,0,0,1,0,1.55,2.29,2.29,0,0,0-.65,1.15,0.44,0.44,0,0,1-.12.18,10.94,10.94,0,0,0-.94,1.18A4.37,4.37,0,0,1,20.34,39a1.36,1.36,0,0,0-.55,1.06,1.55,1.55,0,0,1-.66,1.2A3.21,3.21,0,0,0,17.88,43a3.19,3.19,0,0,1-1.5,1.61c0.57-1.3.25-2.69,0.45-4a33.48,33.48,0,0,1,1.27-4.8,15.38,15.38,0,0,0,.81-4.36A0.42,0.42,0,0,1,18.94,31.3Z" transform="translate(-4.48 -30.81)"/></svg>