<svg id="Camada_1" data-name="Camada 1" xmlns="http://www.w3.org/2000/svg" viewBox="0 0 301 300"><defs><style>.cls-1{fill:#fff;}</style></defs><title>logo</title><path class="cls-1" d="M481,431H331q0-150,0-300H477c-0.29,2-.62,3.91-0.85,5.88-3.47,29.55,9.32,57.06,10.55,86.62a23.41,23.41,0,0,0,2-2.2,35,35,0,0,0,2.93-4.63,169,169,0,0,0,16.26-78.85c-0.12-4-2.48-5-5.8-5.4-2.73-.33-5.42-0.93-8.13-1.42H632V270a26,26,0,0,1-1.05-4.26c-1.13-14.53-4.1-28.71-10.27-41.9-5-10.72-11.17-20.91-17-31.61-6.35,5.54-11.81,9.84-16.65,14.76a15.74,15.74,0,0,0-4,8.29c-1,7-4.46,12.45-9.51,17-3.57,3.24-7.24,6.4-11.06,9.34a73.76,73.76,0,0,0-21.69,27c-3.8,7.93-6.76,16.28-10.7,24.13-2.24,4.46-4.94,9.28-8.75,12.26-12.31,9.63-20.85,22.15-29.67,34.72-11.72,16.72-14.33,34.87-12.07,54.57,1.13,9.88.87,19.91,1.22,29.88C480.94,426.47,481,428.73,481,431ZM453.45,134.88a27.67,27.67,0,0,0-3.32.32c-21.62,5-41.68,13.4-59.93,26.26-41.78,29.46-70.08,98.14-53.64,155.58,8,27.89,19.9,53.26,41.33,73.41,22.71,21.36,50.3,32.5,80.44,38.34,4.25,0.82,5-1.16,5.47-4.71,3.17-24.92,6.32-49.84,9.91-74.7,1-7,4.26-13.73,5.08-20.75,1.07-9.2.47-18.58,1.12-27.84,0.58-8.12,2.49-16.16,2.77-24.27,0.53-15.19-4.32-29.53-8.26-44-4-14.79-8.17-29.52-6.65-45.14a24.89,24.89,0,0,0-.6-9.4C462.84,163.74,458.16,149.56,453.45,134.88Zm37.08,179.65c8.76-5.23,16.72-11.55,19.91-21.07a43.81,43.81,0,0,1,17-22.59c5.31-3.78,8.07-9.11,8.59-15.66,0.47-5.88,2.65-11.18,7.57-14.61,7-4.86,10.83-11.9,15.1-18.91,3.56-5.84,8.47-10.86,12.77-16.26,0.6-.75,1.5-1.51,1.62-2.35,0.88-6.5,4.93-11.12,9-15.78,3.7-4.23,5.11-9.4,2.62-14.38a30.23,30.23,0,0,0-8.36-10.18c-15.1-11.57-32.83-18.13-50.18-25.36a4.58,4.58,0,0,0-1.68.12c-0.27,4.15-.44,8.26-0.81,12.36-1.85,20.7-7.9,40.41-14.21,60.07-6.57,20.45-12.68,41-14,62.64C494.67,286.57,496.75,300.93,490.53,314.53Z" transform="translate(-331 -131)"/><path d="M481,431c0-2.27-.06-4.53-0.14-6.8-0.35-10-.09-20-1.22-29.88-2.26-19.7.34-37.85,12.07-54.57,8.82-12.58,17.36-25.09,29.67-34.72,3.81-3,6.51-7.8,8.75-12.26,3.94-7.86,6.89-16.2,10.7-24.13a73.76,73.76,0,0,1,21.69-27c3.82-2.94,7.49-6.09,11.06-9.34,5-4.59,8.48-10,9.51-17a15.74,15.74,0,0,1,4-8.29c4.84-4.92,10.31-9.22,16.65-14.76,5.8,10.7,12,20.89,17,31.61,6.16,13.19,9.13,27.37,10.27,41.9A26,26,0,0,0,632,270v26c-0.37,1.41-.81,2.8-1.08,4.23-1.59,8.47-2.27,17.23-4.85,25.39-18.18,57.48-58.38,90.2-116.53,102.22C502.44,429.3,495.18,430,488,431h-7Z" transform="translate(-331 -131)"/><path class="cls-1" d="M488,431c7.18-1,14.44-1.7,21.54-3.17,58.15-12,98.35-44.74,116.53-102.22,2.58-8.16,3.26-16.91,4.85-25.39,0.27-1.43.72-2.82,1.08-4.23V431H488Z" transform="translate(-331 -131)"/><path d="M494,131c2.71,0.48,5.4,1.08,8.13,1.42,3.31,0.41,5.67,1.45,5.8,5.4a169,169,0,0,1-16.26,78.85,35,35,0,0,1-2.93,4.63,23.41,23.41,0,0,1-2,2.2c-1.22-29.56-14-57.07-10.55-86.62,0.23-2,.57-3.92.85-5.88h17Z" transform="translate(-331 -131)"/><path d="M453.45,134.88c4.7,14.68,9.38,28.86,13.72,43.14a24.89,24.89,0,0,1,.6,9.4c-1.52,15.62,2.62,30.35,6.65,45.14,3.94,14.43,8.78,28.77,8.26,44-0.28,8.11-2.2,16.16-2.77,24.27-0.66,9.26-.05,18.64-1.12,27.84-0.82,7-4.06,13.73-5.08,20.75-3.59,24.86-6.74,49.78-9.91,74.7-0.45,3.55-1.22,5.54-5.47,4.71-30.14-5.84-57.73-17-80.44-38.34-21.42-20.15-33.34-45.52-41.33-73.41-16.44-57.44,11.85-126.13,53.64-155.58,18.24-12.86,38.31-21.27,59.93-26.26A27.67,27.67,0,0,1,453.45,134.88Z" transform="translate(-331 -131)"/><path d="M490.53,314.53c6.22-13.6,4.14-28,5-42,1.3-21.63,7.41-42.19,14-62.64,6.32-19.65,12.36-39.37,14.21-60.07,0.37-4.1.54-8.21,0.81-12.36a4.58,4.58,0,0,1,1.68-.12c17.35,7.23,35.08,13.79,50.18,25.36a30.23,30.23,0,0,1,8.36,10.18c2.49,5,1.08,10.16-2.62,14.38-4.08,4.66-8.13,9.28-9,15.78-0.11.84-1,1.6-1.62,2.35-4.3,5.39-9.21,10.41-12.77,16.26-4.27,7-8.13,14-15.1,18.91-4.92,3.43-7.11,8.73-7.57,14.61-0.52,6.56-3.28,11.88-8.59,15.66a43.81,43.81,0,0,0-17,22.59C507.25,303,499.29,309.3,490.53,314.53Z" transform="translate(-331 -131)"/></svg>